<?xml version="1.0" encoding="utf-8" ?>
<svg baseProfile="tiny" height="1127" version="1.2" width="1504" xmlns="http://www.w3.org/2000/svg" xmlns:ev="http://www.w3.org/2001/xml-events" xmlns:xlink="http://www.w3.org/1999/xlink"><defs /><path d="M573,305 572,306 567,306 566,307 562,307 561,308 559,308 558,309 556,309 555,310 553,310 552,311 550,311 549,312 548,312 547,313 546,313 545,314 544,314 543,315 542,315 541,316 540,316 539,317 538,317 537,318 536,318 534,320 533,320 530,323 529,323 526,326 525,326 515,336 515,337 511,341 511,342 508,345 508,346 507,347 507,348 505,350 505,351 504,352 504,353 503,354 503,355 502,356 502,357 501,358 501,359 500,360 500,362 499,363 499,364 498,365 498,367 497,368 497,371 496,372 496,374 495,375 495,379 494,380 494,386 493,387 493,405 494,406 494,412 495,413 495,417 496,418 496,421 497,422 497,424 498,425 498,427 499,428 499,429 500,430 500,432 501,433 501,434 502,435 502,436 503,437 503,438 504,439 504,440 505,441 505,442 507,444 507,445 508,446 508,447 511,450 511,451 515,455 515,456 526,467 527,467 530,470 531,470 534,473 535,473 536,474 537,474 539,476 540,476 541,477 542,477 543,478 544,478 545,479 546,479 547,480 548,480 549,481 551,481 552,482 554,482 555,483 557,483 558,484 560,484 561,485 564,485 565,486 570,486 571,487 582,487 583,488 585,488 586,487 598,487 599,486 603,486 604,485 607,485 608,484 611,484 612,483 614,483 615,482 617,482 618,481 620,481 621,480 622,480 623,479 624,479 625,478 626,478 627,477 628,477 630,475 631,475 632,474 633,474 635,472 636,472 639,469 640,469 646,463 647,463 659,451 660,451 663,448 664,448 667,445 668,445 671,442 672,442 674,440 675,440 676,439 677,439 679,437 680,437 681,436 682,436 683,435 684,435 685,434 686,434 687,433 688,433 689,432 690,432 691,431 692,431 693,430 695,430 696,429 697,429 698,428 699,428 700,427 702,427 703,426 705,426 706,425 708,425 709,424 711,424 712,423 715,423 716,422 719,422 720,421 724,421 725,420 730,420 731,419 741,419 742,418 761,418 762,419 771,419 772,420 778,420 779,421 783,421 784,422 787,422 788,423 791,423 792,424 794,424 795,425 797,425 798,426 800,426 801,427 802,427 803,428 805,428 806,429 807,429 808,430 809,430 810,431 812,431 813,432 814,432 815,433 816,433 817,434 818,434 819,435 820,435 822,437 823,437 824,438 825,438 826,439 827,439 829,441 830,441 832,443 833,443 836,446 837,446 840,449 841,449 846,454 847,454 866,473 866,474 868,476 868,477 869,478 869,479 870,480 870,483 871,484 871,495 870,496 870,498 869,499 869,500 868,501 868,502 866,504 866,505 860,511 859,511 857,513 856,513 855,514 853,514 852,515 850,515 849,516 839,516 838,515 836,515 835,514 834,514 833,513 832,513 831,512 830,512 826,508 825,508 808,491 807,491 804,488 803,488 801,486 800,486 799,485 798,485 796,483 795,483 794,482 793,482 792,481 791,481 790,480 789,480 788,479 787,479 786,478 784,478 783,477 781,477 780,476 778,476 777,475 774,475 773,474 770,474 769,473 763,473 762,472 741,472 740,473 734,473 733,474 729,474 728,475 726,475 725,476 723,476 722,477 720,477 719,478 717,478 716,479 715,479 714,480 713,480 712,481 711,481 710,482 709,482 708,483 707,483 705,485 704,485 703,486 702,486 700,488 699,488 697,490 696,490 692,494 691,494 515,670 515,671 511,675 511,676 508,679 508,680 507,681 507,682 505,684 505,685 504,686 504,687 503,688 503,689 502,690 502,691 501,692 501,693 500,694 500,696 499,697 499,698 498,699 498,701 497,702 497,704 496,705 496,708 495,709 495,713 494,714 494,720 493,721 493,739 494,740 494,746 495,747 495,751 496,752 496,754 497,755 497,758 498,759 498,761 499,762 499,763 500,764 500,765 501,766 501,768 502,769 502,770 503,771 503,772 504,773 504,774 506,776 506,777 507,778 507,779 509,781 509,782 511,784 511,785 515,789 515,790 524,799 525,799 529,803 530,803 533,806 534,806 535,807 536,807 538,809 539,809 540,810 541,810 542,811 543,811 544,812 545,812 546,813 547,813 548,814 549,814 550,815 552,815 553,816 555,816 556,817 558,817 559,818 562,818 563,819 566,819 567,820 572,820 573,821 595,821 596,820 602,820 603,819 606,819 607,818 610,818 611,817 613,817 614,816 616,816 617,815 618,815 619,814 621,814 622,813 623,813 624,812 625,812 626,811 627,811 628,810 629,810 631,808 632,808 633,807 634,807 636,805 637,805 640,802 641,802 647,796 648,796 659,785 660,785 664,781 665,781 668,778 669,778 671,776 672,776 673,775 674,775 676,773 677,773 679,771 680,771 681,770 682,770 683,769 684,769 685,768 686,768 687,767 688,767 689,766 690,766 691,765 692,765 693,764 694,764 695,763 697,763 698,762 699,762 700,761 702,761 703,760 705,760 706,759 708,759 709,758 712,758 713,757 715,757 716,756 719,756 720,755 724,755 725,754 730,754 731,753 738,753 739,752 763,752 764,753 771,753 772,754 778,754 779,755 782,755 783,756 786,756 787,757 790,757 791,758 793,758 794,759 796,759 797,760 800,760 801,761 802,761 803,762 805,762 806,763 807,763 808,764 810,764 811,765 812,765 813,766 814,766 815,767 816,767 817,768 818,768 819,769 820,769 822,771 823,771 824,772 825,772 827,774 828,774 829,775 830,775 832,777 833,777 835,779 836,779 839,782 840,782 845,787 846,787 859,800 860,800 864,804 865,804 867,806 868,806 870,808 871,808 872,809 873,809 874,810 875,810 876,811 877,811 878,812 879,812 880,813 881,813 882,814 883,814 884,815 885,815 886,816 888,816 889,817 891,817 892,818 895,818 896,819 899,819 900,820 905,820 906,821 931,821 932,820 937,820 938,819 941,819 942,818 944,818 945,817 948,817 949,816 950,816 951,815 953,815 954,814 955,814 956,813 957,813 958,812 959,812 960,811 961,811 962,810 963,810 964,809 965,809 966,808 967,808 969,806 970,806 972,804 973,804 977,800 978,800 988,790 988,789 992,785 992,784 995,781 995,780 996,779 996,778 998,776 998,775 999,774 999,773 1000,772 1000,771 1001,770 1001,769 1002,768 1002,767 1003,766 1003,764 1004,763 1004,762 1005,761 1005,759 1006,758 1006,755 1007,754 1007,752 1008,751 1008,747 1009,746 1009,739 1010,738 1010,722 1009,721 1009,714 1008,713 1008,709 1007,708 1007,706 1006,705 1006,702 1005,701 1005,699 1004,698 1004,697 1003,696 1003,694 1002,693 1002,692 1001,691 1001,690 1000,689 1000,688 999,687 999,686 998,685 998,684 996,682 996,681 995,680 995,679 992,676 992,675 988,671 988,670 978,660 977,660 974,657 973,657 970,654 969,654 967,652 966,652 965,651 964,651 962,649 961,649 960,648 959,648 958,647 957,647 956,646 954,646 953,645 952,645 951,644 948,644 947,643 945,643 944,642 942,642 941,641 937,641 936,640 931,640 930,639 907,639 906,640 901,640 900,641 897,641 896,642 893,642 892,643 889,643 888,644 887,644 886,645 884,645 883,646 882,646 881,647 879,647 878,648 877,648 876,649 875,649 873,651 872,651 871,652 870,652 868,654 867,654 864,657 863,657 860,660 859,660 846,673 845,673 841,677 840,677 837,680 836,680 833,683 832,683 830,685 829,685 827,687 826,687 825,688 824,688 822,690 821,690 820,691 819,691 818,692 817,692 816,693 815,693 814,694 813,694 812,695 810,695 809,696 808,696 807,697 806,697 805,698 803,698 802,699 801,699 800,700 798,700 797,701 795,701 794,702 792,702 791,703 788,703 787,704 784,704 783,705 779,705 778,706 773,706 772,707 763,707 762,708 741,708 740,707 731,707 730,706 725,706 724,705 720,705 719,704 716,704 715,703 712,703 711,702 708,702 707,701 705,701 704,700 703,700 702,699 700,699 699,698 698,698 697,697 695,697 694,696 693,696 692,695 691,695 690,694 689,694 688,693 687,693 686,692 685,692 684,691 683,691 682,690 681,690 680,689 679,689 677,687 676,687 675,686 674,686 672,684 671,684 668,681 667,681 665,679 664,679 660,675 659,675 651,667 650,667 635,652 635,651 634,650 634,649 633,648 633,647 632,646 632,643 631,642 631,633 632,632 632,630 633,629 633,627 634,626 634,625 636,623 636,622 644,614 645,614 646,613 647,613 648,612 649,612 650,611 652,611 653,610 664,610 665,611 667,611 668,612 670,612 672,614 673,614 675,616 676,616 680,620 680,621 691,632 692,632 696,636 697,636 699,638 700,638 702,640 703,640 705,642 706,642 707,643 708,643 709,644 710,644 711,645 712,645 713,646 714,646 715,647 716,647 717,648 719,648 720,649 721,649 722,650 725,650 726,651 728,651 729,652 733,652 734,653 739,653 740,654 762,654 763,653 769,653 770,652 774,652 775,651 777,651 778,650 780,650 781,649 783,649 784,648 786,648 787,647 788,647 789,646 790,646 791,645 792,645 793,644 794,644 795,643 796,643 798,641 799,641 800,640 801,640 803,638 804,638 806,636 807,636 813,630 814,630 989,455 989,454 993,450 993,449 995,447 995,446 996,445 996,444 998,442 998,441 999,440 999,439 1000,438 1000,437 1001,436 1001,435 1002,434 1002,433 1003,432 1003,430 1004,429 1004,428 1005,427 1005,425 1006,424 1006,422 1007,421 1007,418 1008,417 1008,413 1009,412 1009,406 1010,405 1010,387 1009,386 1009,380 1008,379 1008,375 1007,374 1007,371 1006,370 1006,368 1005,367 1005,365 1004,364 1004,363 1003,362 1003,360 1002,359 1002,358 1001,357 1001,356 1000,355 1000,354 999,353 999,352 998,351 998,350 996,348 996,347 995,346 995,345 992,342 992,341 989,338 989,337 978,326 977,326 973,322 972,322 970,320 969,320 967,318 966,318 965,317 964,317 963,316 962,316 961,315 960,315 959,314 958,314 957,313 956,313 955,312 954,312 953,311 952,311 951,310 949,310 948,309 946,309 945,308 942,308 941,307 938,307 937,306 932,306 931,305 906,305 905,306 900,306 899,307 896,307 895,308 892,308 891,309 889,309 888,310 886,310 885,311 884,311 883,312 882,312 881,313 880,313 879,314 878,314 877,315 876,315 875,316 874,316 873,317 872,317 871,318 870,318 868,320 867,320 865,322 864,322 860,326 859,326 846,339 845,339 840,344 839,344 836,347 835,347 833,349 832,349 830,351 829,351 828,352 827,352 825,354 824,354 822,356 821,356 820,357 819,357 818,358 817,358 816,359 815,359 814,360 813,360 812,361 811,361 810,362 809,362 808,363 806,363 805,364 803,364 802,365 801,365 800,366 798,366 797,367 794,367 793,368 791,368 790,369 787,369 786,370 783,370 782,371 779,371 778,372 773,372 772,373 765,373 764,374 739,374 738,373 731,373 730,372 725,372 724,371 720,371 719,370 716,370 715,369 712,369 711,368 709,368 708,367 706,367 705,366 703,366 702,365 700,365 699,364 697,364 696,363 695,363 694,362 693,362 692,361 691,361 690,360 689,360 688,359 687,359 686,358 685,358 684,357 683,357 682,356 681,356 680,355 679,355 677,353 676,353 675,352 674,352 672,350 671,350 669,348 668,348 665,345 664,345 660,341 659,341 650,332 649,332 641,324 640,324 637,321 636,321 634,319 633,319 632,318 631,318 629,316 628,316 627,315 626,315 625,314 624,314 623,313 622,313 621,312 619,312 618,311 617,311 616,310 614,310 613,309 611,309 610,308 607,308 606,307 603,307 602,306 596,306 595,305" fill="white" /></svg>